<?xml version="1.0" encoding="UTF-8"?>
<svg xmlns="http://www.w3.org/2000/svg" xmlns:xlink="http://www.w3.org/1999/xlink" width="149px" height="67px" viewBox="0 0 149 67" version="1.1">
<defs>
<linearGradient id="linear0" gradientUnits="userSpaceOnUse" x1="243.11" y1="-172.92" x2="243.11" y2="324.5" gradientTransform="matrix(0.14053,0,0,0.14072,0,0.0282317)">
<stop offset="0.35" style="stop-color:rgb(1.960784%,69.803922%,84.705882%);stop-opacity:1;"/>
<stop offset="0.9" style="stop-color:rgb(2.745098%,43.529412%,58.823529%);stop-opacity:1;"/>
</linearGradient>
<linearGradient id="linear1" gradientUnits="userSpaceOnUse" x1="243.39" y1="-172.92" x2="243.39" y2="324.5" gradientTransform="matrix(0.14053,0,0,0.14072,0,0.0282317)">
<stop offset="0.16" style="stop-color:rgb(1.960784%,69.803922%,84.705882%);stop-opacity:1;"/>
<stop offset="1" style="stop-color:rgb(2.745098%,43.529412%,58.823529%);stop-opacity:1;"/>
</linearGradient>
</defs>
<g id="surface1">
<path style=" stroke:none;fill-rule:nonzero;fill:url(#linear0);" d="M 60.539062 44.300781 C 56.253906 49.703125 46.992188 50.546875 48.914062 48.894531 C 52.792969 45.570312 53.972656 46.804688 55.125 43.421875 C 56.277344 40.035156 57.984375 38.414062 58.753906 35.578125 C 59.523438 32.746094 56.746094 35.222656 54.851562 37.613281 C 52.953125 40.007812 52.40625 43.695312 48.558594 44.164062 C 45.042969 44.585938 42.773438 45.226562 41.910156 45.492188 C 41.828125 45.519531 41.742188 45.496094 41.683594 45.433594 C 41.628906 45.371094 41.613281 45.277344 41.644531 45.199219 C 41.804688 44.835938 42.164062 44.277344 42.976562 43.667969 C 45.144531 42.054688 45.425781 41.902344 46.757812 38.796875 C 51.285156 28.257812 50.765625 29.109375 50.476562 28.355469 C 50.183594 27.597656 45.828125 30.566406 44.027344 35.628906 C 42.464844 40.023438 36.597656 41.390625 35.078125 41.679688 C 35.003906 41.695312 34.925781 41.667969 34.878906 41.609375 C 34.832031 41.550781 34.820312 41.46875 34.847656 41.398438 C 37.914062 33.660156 40.105469 30 38.042969 30.570312 C 35.953125 31.152344 35.601562 32.492188 35.601562 32.492188 L 31.699219 40.253906 C 31.632812 40.386719 31.515625 40.488281 31.375 40.535156 C 22.925781 43.238281 18.203125 47.128906 16.359375 48.914062 C 16.148438 49.121094 15.867188 49.246094 15.570312 49.261719 C 13.734375 49.375 12.074219 49.53125 10.652344 49.699219 C 10.480469 49.722656 10.304688 49.707031 10.136719 49.652344 C 8.117188 49 5.789062 47.734375 3.40625 45.347656 C -3.382812 38.550781 -0.191406 17.582031 14.480469 6.683594 C 29.15625 -4.214844 50.035156 -0.914062 62.351562 10.648438 C 74.667969 22.207031 64.828125 38.90625 60.539062 44.300781 Z M 60.539062 44.300781 "/>
<path style=" stroke:none;fill-rule:nonzero;fill:url(#linear1);" d="M 59.347656 49.53125 C 58.960938 51.03125 56.90625 57.644531 49.417969 63.039062 C 40.917969 69.167969 34.394531 66.527344 30.402344 65.644531 C 26.496094 64.785156 24.167969 62.691406 9.183594 59.890625 C 9.113281 59.875 9.0625 59.820312 9.054688 59.753906 C 9.042969 59.683594 9.082031 59.617188 9.144531 59.585938 C 11.769531 58.355469 16.449219 56.546875 21.324219 56.546875 C 28.730469 56.546875 28.800781 55.136719 33.527344 55.136719 C 38.105469 55.136719 46.398438 54.492188 49.058594 55.378906 C 49.222656 55.429688 49.398438 55.40625 49.539062 55.308594 C 50.5 54.671875 54.105469 52.292969 55.292969 51.867188 C 56.324219 51.492188 57.527344 50.222656 58.652344 49.132812 L 59.109375 49.179688 C 59.1875 49.191406 59.261719 49.234375 59.308594 49.300781 C 59.355469 49.367188 59.371094 49.453125 59.347656 49.53125 Z M 59.347656 49.53125 "/>
<path style=" stroke:none;fill-rule:nonzero;fill:rgb(0.784314%,12.54902%,24.705882%);fill-opacity:1;" d="M 79.933594 55.152344 C 80.351562 55.472656 80.648438 55.921875 80.785156 56.425781 L 80.082031 56.425781 C 79.957031 56.097656 79.738281 55.8125 79.445312 55.609375 C 79.125 55.398438 78.75 55.292969 78.367188 55.304688 C 77.714844 55.289062 77.113281 55.664062 76.832031 56.257812 C 76.671875 56.589844 76.59375 56.960938 76.601562 57.332031 C 76.59375 57.699219 76.671875 58.0625 76.832031 58.394531 C 77.113281 58.984375 77.714844 59.355469 78.367188 59.339844 C 78.75 59.351562 79.125 59.246094 79.445312 59.035156 C 79.738281 58.835938 79.957031 58.550781 80.082031 58.21875 L 80.785156 58.21875 C 80.648438 58.722656 80.351562 59.167969 79.933594 59.484375 C 79.480469 59.808594 78.929688 59.972656 78.375 59.953125 C 77.925781 59.960938 77.480469 59.84375 77.09375 59.617188 C 76.722656 59.394531 76.421875 59.070312 76.222656 58.6875 C 76.011719 58.265625 75.902344 57.796875 75.910156 57.324219 C 75.902344 56.847656 76.011719 56.378906 76.222656 55.953125 C 76.417969 55.566406 76.71875 55.242188 77.09375 55.015625 C 77.480469 54.789062 77.925781 54.675781 78.375 54.683594 C 78.933594 54.664062 79.480469 54.828125 79.933594 55.152344 Z M 79.933594 55.152344 "/>
<path style=" stroke:none;fill-rule:nonzero;fill:rgb(0.784314%,12.54902%,24.705882%);fill-opacity:1;" d="M 82.644531 59.390625 L 84.472656 59.390625 L 84.472656 59.914062 L 81.980469 59.914062 L 81.980469 54.742188 L 82.644531 54.742188 Z M 82.644531 59.390625 "/>
<path style=" stroke:none;fill-rule:nonzero;fill:rgb(0.784314%,12.54902%,24.705882%);fill-opacity:1;" d="M 86.125 55.285156 L 86.125 57.050781 L 88.09375 57.050781 L 88.09375 57.566406 L 86.125 57.566406 L 86.125 59.371094 L 88.3125 59.371094 L 88.3125 59.914062 L 85.460938 59.914062 L 85.460938 54.742188 L 88.3125 54.742188 L 88.3125 55.285156 Z M 86.125 55.285156 "/>
<path style=" stroke:none;fill-rule:nonzero;fill:rgb(0.784314%,12.54902%,24.705882%);fill-opacity:1;" d="M 92.496094 58.71875 L 90.21875 58.71875 L 89.789062 59.914062 L 89.070312 59.914062 L 90.980469 54.835938 L 91.738281 54.835938 L 93.640625 59.914062 L 92.925781 59.914062 Z M 92.304688 58.195312 L 91.359375 55.585938 L 90.414062 58.195312 Z M 92.304688 58.195312 "/>
<path style=" stroke:none;fill-rule:nonzero;fill:rgb(0.784314%,12.54902%,24.705882%);fill-opacity:1;" d="M 98.636719 59.914062 L 97.96875 59.914062 L 95.285156 55.832031 L 95.285156 59.914062 L 94.621094 59.914062 L 94.621094 54.742188 L 95.285156 54.742188 L 97.96875 58.835938 L 97.96875 54.742188 L 98.636719 54.742188 Z M 98.636719 59.914062 "/>
<path style=" stroke:none;fill-rule:nonzero;fill:rgb(0.784314%,12.54902%,24.705882%);fill-opacity:1;" d="M 100.671875 54.742188 L 100.671875 59.914062 L 100.003906 59.914062 L 100.003906 54.742188 Z M 100.671875 54.742188 "/>
<path style=" stroke:none;fill-rule:nonzero;fill:rgb(0.784314%,12.54902%,24.705882%);fill-opacity:1;" d="M 106.058594 59.914062 L 105.398438 59.914062 L 102.714844 55.832031 L 102.714844 59.914062 L 102.050781 59.914062 L 102.050781 54.742188 L 102.714844 54.742188 L 105.398438 58.835938 L 105.398438 54.742188 L 106.0625 54.742188 Z M 106.058594 59.914062 "/>
<path style=" stroke:none;fill-rule:nonzero;fill:rgb(0.784314%,12.54902%,24.705882%);fill-opacity:1;" d="M 111.289062 55.136719 C 111.695312 55.433594 111.984375 55.863281 112.113281 56.355469 L 111.410156 56.355469 C 111.289062 56.042969 111.074219 55.78125 110.796875 55.597656 C 110.496094 55.40625 110.140625 55.308594 109.78125 55.316406 C 109.449219 55.3125 109.125 55.394531 108.835938 55.5625 C 108.558594 55.730469 108.328125 55.972656 108.179688 56.265625 C 107.863281 56.949219 107.863281 57.742188 108.179688 58.425781 C 108.332031 58.722656 108.566406 58.964844 108.851562 59.128906 C 109.152344 59.296875 109.492188 59.382812 109.835938 59.375 C 110.140625 59.378906 110.4375 59.308594 110.707031 59.171875 C 110.972656 59.03125 111.195312 58.824219 111.355469 58.570312 C 111.53125 58.292969 111.632812 57.980469 111.660156 57.652344 L 109.632812 57.652344 L 109.632812 57.148438 L 112.230469 57.148438 L 112.230469 57.761719 C 112.191406 58.160156 112.058594 58.542969 111.847656 58.878906 C 111.640625 59.210938 111.347656 59.484375 111.003906 59.671875 C 110.628906 59.871094 110.210938 59.972656 109.789062 59.964844 C 109.328125 59.976562 108.871094 59.859375 108.46875 59.628906 C 108.089844 59.410156 107.78125 59.085938 107.578125 58.699219 C 107.152344 57.835938 107.152344 56.824219 107.578125 55.960938 C 107.78125 55.574219 108.089844 55.25 108.46875 55.027344 C 108.867188 54.796875 109.320312 54.679688 109.78125 54.6875 C 110.316406 54.671875 110.847656 54.828125 111.289062 55.136719 Z M 111.289062 55.136719 "/>
<path style=" stroke:none;fill-rule:nonzero;fill:rgb(0.784314%,12.54902%,24.705882%);fill-opacity:1;" d="M 118.632812 59.253906 C 118.507812 59.472656 118.320312 59.648438 118.097656 59.765625 C 117.824219 59.90625 117.519531 59.976562 117.210938 59.964844 C 116.898438 59.972656 116.585938 59.90625 116.300781 59.777344 C 116.046875 59.667969 115.824219 59.492188 115.65625 59.273438 C 115.496094 59.054688 115.398438 58.796875 115.375 58.527344 L 116.085938 58.527344 C 116.101562 58.679688 116.15625 58.824219 116.238281 58.953125 C 116.328125 59.097656 116.453125 59.21875 116.605469 59.300781 C 116.78125 59.398438 116.976562 59.445312 117.179688 59.441406 C 117.425781 59.457031 117.667969 59.371094 117.851562 59.207031 C 118.011719 59.046875 118.09375 58.828125 118.085938 58.601562 C 118.097656 58.417969 118.035156 58.234375 117.921875 58.089844 C 117.8125 57.957031 117.671875 57.851562 117.515625 57.777344 C 117.300781 57.683594 117.082031 57.601562 116.855469 57.53125 C 116.589844 57.445312 116.332031 57.339844 116.078125 57.21875 C 115.878906 57.121094 115.703125 56.976562 115.570312 56.792969 C 115.425781 56.570312 115.351562 56.308594 115.363281 56.039062 C 115.359375 55.789062 115.425781 55.539062 115.558594 55.328125 C 115.695312 55.117188 115.890625 54.949219 116.121094 54.851562 C 116.390625 54.730469 116.679688 54.675781 116.972656 54.679688 C 117.480469 54.679688 117.886719 54.804688 118.183594 55.050781 C 118.472656 55.285156 118.660156 55.625 118.703125 55.996094 L 117.984375 55.996094 C 117.941406 55.78125 117.832031 55.59375 117.671875 55.449219 C 117.476562 55.285156 117.226562 55.203125 116.972656 55.21875 C 116.742188 55.207031 116.511719 55.28125 116.328125 55.425781 C 116.042969 55.71875 116.007812 56.171875 116.246094 56.503906 C 116.351562 56.628906 116.488281 56.730469 116.636719 56.796875 C 116.847656 56.890625 117.0625 56.96875 117.28125 57.035156 C 117.554688 57.121094 117.824219 57.222656 118.085938 57.34375 C 118.292969 57.445312 118.46875 57.597656 118.601562 57.789062 C 118.753906 58.023438 118.828125 58.296875 118.8125 58.578125 C 118.8125 58.816406 118.75 59.046875 118.632812 59.253906 Z M 118.632812 59.253906 "/>
<path style=" stroke:none;fill-rule:nonzero;fill:rgb(0.784314%,12.54902%,24.705882%);fill-opacity:1;" d="M 120.671875 55.285156 L 120.671875 57.050781 L 122.636719 57.050781 L 122.636719 57.566406 L 120.671875 57.566406 L 120.671875 59.371094 L 122.855469 59.371094 L 122.855469 59.914062 L 120.003906 59.914062 L 120.003906 54.742188 L 122.855469 54.742188 L 122.855469 55.285156 Z M 120.671875 55.285156 "/>
<path style=" stroke:none;fill-rule:nonzero;fill:rgb(0.784314%,12.54902%,24.705882%);fill-opacity:1;" d="M 126.757812 59.914062 L 125.410156 57.800781 L 124.679688 57.800781 L 124.679688 59.914062 L 124.011719 59.914062 L 124.011719 54.742188 L 125.710938 54.742188 C 126.300781 54.742188 126.738281 54.882812 127.03125 55.164062 C 127.328125 55.457031 127.488281 55.863281 127.472656 56.28125 C 127.488281 56.652344 127.363281 57.015625 127.121094 57.296875 C 126.847656 57.574219 126.484375 57.742188 126.101562 57.777344 L 127.507812 59.914062 Z M 124.679688 57.316406 L 125.652344 57.316406 C 126.410156 57.316406 126.789062 56.984375 126.789062 56.316406 C 126.789062 55.652344 126.410156 55.320312 125.652344 55.320312 L 124.679688 55.320312 Z M 124.679688 57.316406 "/>
<path style=" stroke:none;fill-rule:nonzero;fill:rgb(0.784314%,12.54902%,24.705882%);fill-opacity:1;" d="M 128.921875 54.742188 L 130.496094 59.171875 L 132.097656 54.742188 L 132.824219 54.742188 L 130.925781 59.914062 L 130.082031 59.914062 L 128.1875 54.742188 Z M 128.921875 54.742188 "/>
<path style=" stroke:none;fill-rule:nonzero;fill:rgb(0.784314%,12.54902%,24.705882%);fill-opacity:1;" d="M 134.460938 54.742188 L 134.460938 59.914062 L 133.792969 59.914062 L 133.792969 54.742188 Z M 134.460938 54.742188 "/>
<path style=" stroke:none;fill-rule:nonzero;fill:rgb(0.784314%,12.54902%,24.705882%);fill-opacity:1;" d="M 139.679688 55.152344 C 140.09375 55.472656 140.386719 55.921875 140.523438 56.425781 L 139.820312 56.425781 C 139.695312 56.097656 139.472656 55.808594 139.179688 55.609375 C 138.863281 55.398438 138.484375 55.292969 138.101562 55.304688 C 137.449219 55.289062 136.847656 55.664062 136.570312 56.257812 C 136.410156 56.589844 136.328125 56.960938 136.339844 57.332031 C 136.332031 57.699219 136.410156 58.0625 136.570312 58.394531 C 136.710938 58.683594 136.925781 58.925781 137.199219 59.097656 C 137.472656 59.261719 137.785156 59.347656 138.101562 59.34375 C 138.484375 59.355469 138.863281 59.25 139.179688 59.039062 C 139.472656 58.839844 139.695312 58.554688 139.820312 58.222656 L 140.523438 58.222656 C 140.386719 58.726562 140.089844 59.171875 139.679688 59.488281 C 139.226562 59.8125 138.675781 59.976562 138.117188 59.953125 C 137.667969 59.964844 137.226562 59.847656 136.835938 59.621094 C 136.464844 59.398438 136.164062 59.074219 135.96875 58.6875 C 135.753906 58.265625 135.648438 57.800781 135.65625 57.328125 C 135.648438 56.851562 135.753906 56.382812 135.96875 55.957031 C 136.164062 55.566406 136.464844 55.242188 136.835938 55.019531 C 137.222656 54.792969 137.667969 54.675781 138.117188 54.683594 C 138.675781 54.664062 139.226562 54.828125 139.679688 55.152344 Z M 139.679688 55.152344 "/>
<path style=" stroke:none;fill-rule:nonzero;fill:rgb(0.784314%,12.54902%,24.705882%);fill-opacity:1;" d="M 142.390625 55.285156 L 142.390625 57.050781 L 144.359375 57.050781 L 144.359375 57.566406 L 142.390625 57.566406 L 142.390625 59.371094 L 144.574219 59.371094 L 144.574219 59.914062 L 141.722656 59.914062 L 141.722656 54.742188 L 144.574219 54.742188 L 144.574219 55.285156 Z M 142.390625 55.285156 "/>
<path style=" stroke:none;fill-rule:nonzero;fill:rgb(0.784314%,12.54902%,24.705882%);fill-opacity:1;" d="M 148.820312 59.253906 C 148.695312 59.472656 148.507812 59.648438 148.285156 59.765625 C 148.011719 59.90625 147.707031 59.976562 147.398438 59.964844 C 147.085938 59.96875 146.773438 59.90625 146.488281 59.777344 C 146.234375 59.664062 146.015625 59.488281 145.847656 59.265625 C 145.691406 59.046875 145.59375 58.789062 145.574219 58.519531 L 146.292969 58.519531 C 146.328125 58.84375 146.519531 59.132812 146.808594 59.292969 C 146.984375 59.390625 147.183594 59.4375 147.382812 59.433594 C 147.628906 59.449219 147.875 59.363281 148.058594 59.199219 C 148.214844 59.039062 148.300781 58.820312 148.292969 58.597656 C 148.300781 58.410156 148.242188 58.230469 148.128906 58.082031 C 148.015625 57.949219 147.878906 57.84375 147.722656 57.769531 C 147.507812 57.675781 147.285156 57.59375 147.0625 57.523438 C 146.792969 57.441406 146.527344 57.339844 146.273438 57.222656 C 146.074219 57.125 145.898438 56.980469 145.769531 56.800781 C 145.621094 56.574219 145.546875 56.3125 145.558594 56.042969 C 145.554688 55.792969 145.621094 55.546875 145.753906 55.332031 C 145.890625 55.121094 146.085938 54.953125 146.316406 54.855469 C 146.582031 54.734375 146.875 54.679688 147.167969 54.683594 C 147.675781 54.683594 148.078125 54.808594 148.378906 55.054688 C 148.667969 55.289062 148.855469 55.628906 148.898438 56 L 148.179688 56 C 148.136719 55.789062 148.027344 55.597656 147.863281 55.457031 C 147.667969 55.289062 147.417969 55.207031 147.160156 55.222656 C 146.929688 55.210938 146.699219 55.285156 146.515625 55.429688 C 146.230469 55.722656 146.195312 56.175781 146.433594 56.507812 C 146.539062 56.636719 146.671875 56.734375 146.824219 56.800781 C 147.035156 56.894531 147.25 56.972656 147.46875 57.042969 C 147.742188 57.125 148.011719 57.226562 148.273438 57.347656 C 148.480469 57.449219 148.65625 57.601562 148.789062 57.792969 C 148.941406 58.027344 149.015625 58.304688 149 58.582031 C 149 58.816406 148.9375 59.046875 148.820312 59.253906 Z M 148.820312 59.253906 "/>
<path style=" stroke:none;fill-rule:nonzero;fill:rgb(0.784314%,12.54902%,24.705882%);fill-opacity:1;" d="M 108.535156 20.863281 C 108.535156 26.429688 105.632812 30.777344 101.789062 33.210938 C 99.269531 34.875 96.324219 35.765625 93.308594 35.777344 C 89.101562 35.777344 86.84375 34.269531 86.84375 31.40625 C 86.84375 30.375 87.066406 28.933594 87.519531 27.082031 C 87.941406 25.234375 89.296875 20.074219 91.523438 11.601562 C 87.742188 11.894531 84.796875 13.269531 83.039062 15.273438 C 81.285156 17.277344 80.410156 19.757812 80.410156 22.617188 C 80.339844 26.449219 82.09375 29.714844 82.027344 30.257812 C 82.027344 30.886719 81.375 31.269531 80.566406 31.269531 C 79.597656 31.269531 78.5625 30.480469 77.507812 28.878906 C 76.449219 27.273438 75.910156 25.429688 75.910156 23.3125 C 75.910156 19.617188 77.617188 16.277344 80.632812 13.894531 C 83.648438 11.515625 88.351562 10.042969 93.863281 10.042969 C 103.605469 10.050781 108.535156 13.835938 108.535156 20.863281 Z M 102.914062 28.074219 C 103.898438 26.113281 104.398438 23.929688 104.398438 21.496094 C 104.398438 18.679688 103.609375 16.402344 102.007812 14.667969 C 100.40625 12.933594 98.117188 11.921875 95.121094 11.628906 C 93.03125 19.761719 91.773438 24.761719 91.34375 26.632812 C 90.894531 28.523438 90.671875 29.964844 90.671875 30.980469 C 90.671875 33.03125 91.933594 34.15625 94.15625 34.15625 C 97.644531 34.15625 100.929688 32.015625 102.910156 28.074219 Z M 102.914062 28.074219 "/>
<path style=" stroke:none;fill-rule:nonzero;fill:rgb(0.784314%,12.54902%,24.705882%);fill-opacity:1;" d="M 108.65625 28.523438 C 108.835938 27.804688 109.128906 26.742188 109.558594 25.347656 C 109.984375 23.953125 110.324219 22.757812 110.570312 21.765625 L 110.683594 21.269531 C 110.976562 20.121094 111.46875 19.738281 112.976562 19.738281 C 113.765625 19.738281 114.171875 19.960938 114.171875 20.441406 C 114.171875 20.777344 113.75 22.308594 112.886719 25.011719 C 112.011719 27.71875 111.582031 29.40625 111.582031 30.078125 C 111.582031 30.980469 111.921875 31.609375 112.59375 31.96875 C 112.527344 32.714844 112.101562 33.074219 111.3125 33.074219 C 109.601562 33.074219 108.386719 32.0625 108.386719 30.417969 C 108.40625 29.777344 108.496094 29.140625 108.65625 28.523438 Z M 113.265625 18.320312 C 112.210938 18.320312 111.625 17.847656 111.625 17.054688 C 111.625 16.351562 111.894531 15.75 112.457031 15.207031 C 112.988281 14.675781 113.710938 14.382812 114.460938 14.398438 C 115.316406 14.398438 115.742188 14.734375 115.742188 15.410156 C 115.742188 15.703125 115.601562 16.175781 115.335938 16.875 C 115.046875 17.578125 114.886719 17.980469 114.863281 18.113281 C 114.339844 18.234375 113.804688 18.300781 113.265625 18.320312 Z M 113.265625 18.320312 "/>
<path style=" stroke:none;fill-rule:nonzero;fill:rgb(0.784314%,12.54902%,24.705882%);fill-opacity:1;" d="M 123.140625 31.226562 C 122.464844 34.382812 122.019531 36.613281 121.792969 37.894531 C 121.566406 39.179688 121.453125 40.171875 121.476562 40.871094 C 121.117188 41.050781 120.621094 41.140625 119.96875 41.140625 C 118.867188 41.140625 118.140625 40.597656 118.140625 39.496094 C 118.140625 39.066406 118.210938 38.707031 118.414062 37.738281 L 118.75 36.320312 C 118.863281 35.847656 119.042969 35.105469 119.289062 34.089844 C 119.535156 33.074219 119.785156 32.085938 120.007812 31.113281 C 118.03125 30.890625 116.433594 30.4375 115.195312 29.765625 C 113.957031 29.109375 113.351562 28.367188 113.351562 27.554688 C 113.351562 26.632812 113.824219 26 114.789062 25.640625 C 116.523438 27.578125 118.390625 28.863281 120.390625 29.515625 L 122.078125 21.632812 C 122.417969 20.191406 123.136719 19.765625 124.394531 19.765625 C 125.050781 19.765625 125.363281 20.011719 125.363281 20.484375 C 125.363281 20.9375 124.78125 22.445312 124.058594 24.316406 C 123.699219 25.261719 123.429688 26.003906 123.273438 26.566406 L 123.414062 26.613281 C 125.121094 21.769531 126.875 19.648438 129.464844 19.648438 C 131.292969 19.648438 132.457031 20.84375 132.457031 23.007812 C 132.457031 27.148438 129.488281 30.988281 123.140625 31.226562 Z M 125.570312 24.039062 C 124.648438 25.617188 123.929688 27.601562 123.414062 29.988281 C 125.28125 29.964844 126.695312 29.355469 127.6875 28.117188 C 128.652344 26.878906 129.148438 25.347656 129.148438 23.5 C 129.148438 22.304688 128.8125 21.699219 128.136719 21.699219 C 127.351562 21.699219 126.492188 22.484375 125.570312 24.039062 Z M 125.570312 24.039062 "/>
<path style=" stroke:none;fill-rule:nonzero;fill:rgb(0.784314%,12.54902%,24.705882%);fill-opacity:1;" d="M 92.664062 44.414062 C 92.660156 44.558594 92.632812 44.703125 92.574219 44.835938 L 92.460938 45.21875 C 91.921875 46.816406 90.953125 48.214844 89.535156 49.429688 C 88.121094 50.671875 86.523438 51.277344 84.769531 51.277344 C 83.351562 51.277344 82.496094 50.648438 82.496094 49.386719 C 82.511719 48.851562 82.59375 48.320312 82.742188 47.808594 L 84.496094 41.257812 C 84.25 41.238281 83.84375 41.238281 83.328125 41.238281 C 83.28125 41.089844 83.261719 40.9375 83.261719 40.785156 C 83.261719 40.199219 83.574219 39.90625 84.183594 39.90625 L 84.855469 39.90625 L 85.261719 38.417969 C 85.621094 37.179688 86.09375 36.796875 87.46875 36.796875 C 88.171875 36.796875 88.5 37.023438 88.5 37.503906 C 88.488281 37.691406 88.457031 37.878906 88.410156 38.066406 L 87.894531 39.914062 C 88.527344 39.914062 89.160156 39.867188 89.785156 39.773438 C 89.847656 40 89.878906 40.238281 89.875 40.476562 C 89.875 41.128906 89.535156 41.445312 88.839844 41.445312 C 88.230469 41.445312 87.78125 41.445312 87.488281 41.421875 L 85.890625 47.136719 C 85.691406 47.882812 85.601562 48.40625 85.601562 48.695312 C 85.601562 49.117188 85.847656 49.347656 86.320312 49.347656 C 87.242188 49.347656 88.230469 48.894531 89.289062 48.019531 C 90.320312 47.171875 91.109375 46.066406 91.582031 44.816406 L 91.878906 44.007812 C 92.238281 44.007812 92.460938 44.050781 92.578125 44.164062 C 92.644531 44.230469 92.675781 44.320312 92.664062 44.414062 Z M 92.664062 44.414062 "/>
<path style=" stroke:none;fill-rule:nonzero;fill:rgb(0.784314%,12.54902%,24.705882%);fill-opacity:1;" d="M 107.445312 44.414062 C 107.433594 44.558594 107.40625 44.699219 107.355469 44.835938 L 107.214844 45.21875 C 106.742188 46.570312 105.839844 47.695312 104.492188 48.574219 C 103.121094 49.453125 101.453125 49.902344 99.496094 49.925781 C 98.203125 50.910156 96.625 51.441406 95 51.4375 C 92.03125 51.4375 90.230469 49.925781 90.230469 47.515625 C 90.230469 45.691406 90.90625 44.023438 92.253906 42.515625 C 93.582031 41.027344 95.089844 40.035156 96.734375 39.519531 C 96.964844 39.441406 97.207031 39.394531 97.453125 39.378906 C 97.835938 39.378906 98.15625 39.648438 98.15625 39.917969 C 98.15625 40.074219 97.976562 40.257812 97.59375 40.480469 C 96.535156 41.136719 95.613281 42.082031 94.824219 43.367188 C 94.039062 44.652344 93.613281 45.890625 93.613281 47.105469 C 93.613281 48.886719 94.441406 49.761719 95.792969 49.761719 C 96.242188 49.761719 96.683594 49.648438 97.074219 49.425781 C 95.929688 48.816406 95.34375 47.804688 95.34375 46.382812 C 95.34375 45.03125 95.882812 43.703125 96.941406 42.394531 C 98 41.113281 99.144531 40.457031 100.359375 40.457031 C 101.867188 40.457031 102.878906 41.449219 102.878906 43.320312 C 102.890625 45.222656 102.210938 47.0625 100.96875 48.503906 C 103.601562 48.253906 105.558594 46.902344 106.34375 44.808594 L 106.660156 43.996094 C 107 43.996094 107.222656 44.042969 107.335938 44.152344 C 107.40625 44.222656 107.445312 44.316406 107.445312 44.414062 Z M 97.90625 43.429688 C 97.535156 44.183594 97.34375 45.015625 97.34375 45.859375 C 97.34375 47.007812 97.703125 47.796875 98.445312 48.203125 C 99.300781 47.054688 99.726562 45.613281 99.730469 43.878906 C 99.730469 42.820312 99.503906 42.277344 99.027344 42.277344 C 98.652344 42.273438 98.289062 42.65625 97.90625 43.421875 Z M 97.90625 43.429688 "/>
<path style=" stroke:none;fill-rule:nonzero;fill:rgb(0.784314%,12.54902%,24.705882%);fill-opacity:1;" d="M 120.941406 44.007812 C 121.304688 44.007812 121.527344 44.050781 121.644531 44.164062 C 121.710938 44.230469 121.746094 44.320312 121.734375 44.414062 C 121.738281 44.558594 121.710938 44.703125 121.644531 44.835938 L 121.535156 45.21875 C 121.015625 46.75 120.09375 48.171875 118.722656 49.453125 C 117.351562 50.734375 115.949219 51.390625 114.507812 51.390625 C 113.089844 51.390625 112.414062 50.671875 112.414062 49.5625 C 112.421875 49.148438 112.488281 48.738281 112.621094 48.347656 C 112.730469 47.925781 113 47.171875 113.382812 46.070312 L 113.242188 46.003906 C 111.9375 49.496094 110.09375 51.230469 107.730469 51.230469 C 106.132812 51.230469 105.007812 50.351562 105.007812 48.796875 C 105.015625 48.28125 105.074219 47.765625 105.1875 47.265625 C 105.300781 46.746094 105.550781 45.914062 105.910156 44.742188 C 106.269531 43.59375 106.582031 42.488281 106.855469 41.453125 C 107.191406 40.121094 107.730469 39.808594 109.082031 39.808594 C 109.867188 39.808594 110.273438 40.054688 110.273438 40.550781 C 110.273438 40.753906 110.160156 41.226562 109.914062 41.992188 L 109.753906 42.464844 C 108.722656 45.511719 108.207031 47.410156 108.207031 48.15625 C 108.207031 48.859375 108.5 49.210938 109.109375 49.210938 C 110.617188 49.210938 112.414062 46.871094 113.765625 41.847656 L 113.921875 41.261719 C 114.257812 40.089844 114.640625 39.796875 116.148438 39.796875 C 117.050781 39.796875 117.320312 40.21875 117.207031 40.832031 L 117.164062 41.082031 C 117.140625 41.238281 116.777344 42.429688 116.128906 44.707031 C 115.453125 46.984375 115.117188 48.355469 115.117188 48.808594 C 115.117188 49.230469 115.339844 49.460938 115.789062 49.460938 C 116.507812 49.460938 117.386719 48.988281 118.421875 48.042969 C 119.394531 47.148438 120.15625 46.046875 120.648438 44.820312 Z M 120.941406 44.007812 "/>
<path style=" stroke:none;fill-rule:nonzero;fill:rgb(0.784314%,12.54902%,24.705882%);fill-opacity:1;" d="M 128.996094 41.867188 C 128.996094 42.632812 128.683594 43.378906 128.050781 44.117188 C 127.421875 44.859375 126.835938 45.222656 126.320312 45.222656 C 125.871094 45.222656 125.398438 44.929688 125.398438 44.570312 C 125.398438 44.457031 125.539062 44.117188 125.78125 43.535156 C 126.023438 42.949219 126.164062 42.453125 126.164062 42.046875 C 126.164062 41.625 125.984375 41.414062 125.621094 41.414062 C 124.945312 41.414062 124.25 42.023438 123.53125 43.261719 C 122.789062 44.5 122.425781 45.695312 122.425781 46.890625 C 122.425781 48.558594 123.328125 49.390625 125.148438 49.390625 C 126.523438 49.390625 127.871094 48.941406 129.175781 48.0625 C 130.460938 47.183594 131.359375 46.101562 131.832031 44.816406 L 132.148438 44.007812 C 132.507812 44.007812 132.730469 44.050781 132.851562 44.164062 C 132.914062 44.230469 132.949219 44.320312 132.941406 44.410156 C 132.945312 44.558594 132.914062 44.703125 132.851562 44.832031 L 132.761719 45.125 C 132.199219 46.792969 131.09375 48.234375 129.496094 49.472656 C 127.925781 50.707031 125.980469 51.367188 123.984375 51.34375 C 120.949219 51.34375 119.195312 50.058594 119.195312 47.46875 C 119.195312 46.34375 119.554688 45.171875 120.273438 43.976562 C 120.976562 42.800781 121.929688 41.792969 123.0625 41.023438 C 124.210938 40.234375 125.335938 39.851562 126.460938 39.851562 C 128.164062 39.863281 128.996094 40.628906 128.996094 41.867188 Z M 128.996094 41.867188 "/>
<path style=" stroke:none;fill-rule:nonzero;fill:rgb(0.784314%,12.54902%,24.705882%);fill-opacity:1;" d="M 142.5625 42.160156 C 142.5625 42.863281 142.292969 44.007812 141.773438 45.609375 C 141.257812 47.207031 140.988281 48.222656 140.988281 48.695312 C 140.988281 49.117188 141.214844 49.347656 141.640625 49.347656 C 142.316406 49.347656 143.148438 48.894531 144.136719 47.996094 C 145.097656 47.125 145.835938 46.035156 146.292969 44.816406 L 146.585938 44.007812 C 146.945312 44.007812 147.171875 44.050781 147.285156 44.164062 C 147.355469 44.230469 147.394531 44.320312 147.398438 44.414062 C 147.390625 44.558594 147.359375 44.699219 147.308594 44.835938 L 147.167969 45.21875 C 146.652344 46.796875 145.707031 48.191406 144.359375 49.429688 C 142.984375 50.671875 141.546875 51.277344 140.039062 51.277344 C 138.664062 51.277344 137.742188 50.648438 137.742188 49.386719 C 137.742188 48.777344 137.992188 47.652344 138.507812 46.050781 C 139.023438 44.453125 139.273438 43.371094 139.273438 42.761719 C 139.273438 42.109375 138.980469 41.777344 138.394531 41.777344 C 137.5625 41.777344 136.710938 42.519531 135.808594 43.984375 C 134.886719 45.472656 134.1875 47.410156 133.671875 49.820312 L 133.601562 50.132812 L 133.421875 51.015625 C 132.96875 51.136719 132.5 51.203125 132.027344 51.214844 C 130.925781 51.214844 130.386719 50.792969 130.386719 49.933594 C 130.386719 49.480469 130.476562 49.097656 130.835938 47.769531 C 131.015625 47.117188 131.242188 46.304688 131.488281 45.375 C 131.734375 44.449219 132.074219 43.011719 132.523438 41.050781 C 132.972656 39.09375 133.46875 36.90625 133.984375 34.453125 L 134.210938 33.460938 C 134.414062 32.378906 134.914062 31.949219 136.414062 31.949219 C 137.339844 31.949219 137.652344 32.265625 137.652344 32.894531 C 137.652344 33.4375 137.40625 34.453125 136.863281 36.253906 C 136.574219 37.175781 136.304688 38.082031 136.011719 38.957031 C 135.71875 39.832031 135.308594 41.050781 134.816406 42.5625 C 134.328125 44.070312 133.875 45.445312 133.492188 46.640625 L 133.632812 46.6875 C 135.34375 41.84375 137.1875 39.726562 139.886719 39.726562 C 141.484375 39.726562 142.5625 40.605469 142.5625 42.160156 Z M 142.5625 42.160156 "/>
</g>
</svg>
